<?xml version="1.0" encoding="utf-8"?>
<!-- Generator: Adobe Illustrator 23.1.0, SVG Export Plug-In . SVG Version: 6.00 Build 0)  -->
<svg version="1.1" id="Layer_1" xmlns="http://www.w3.org/2000/svg" xmlns:xlink="http://www.w3.org/1999/xlink" x="0px" y="0px"
	 viewBox="0 0 114.11 115.34" style="enable-background:new 0 0 114.11 115.34;" xml:space="preserve">
<style type="text/css">
	.st0{fill:#996600;stroke:#000000;stroke-width:0.2125;stroke-miterlimit:10;}
</style>
<path class="st0" d="M92.32,57.55c0-0.47-0.02-0.93-0.04-1.39l7.46-1.66c-0.03-0.38-0.05-0.75-0.09-1.12L92.02,53
	c-0.28-2.16-0.75-4.27-1.4-6.29l6.74-3.61c-0.13-0.35-0.26-0.7-0.4-1.05l-7.45,1.69c-0.85-1.99-1.88-3.89-3.06-5.67l5.51-5.29
	c-0.22-0.31-0.43-0.61-0.66-0.91l-6.73,3.65c-1.35-1.68-2.85-3.23-4.47-4.63l3.88-6.59c-0.29-0.24-0.59-0.47-0.89-0.7l-5.49,5.32
	c-1.74-1.25-3.6-2.35-5.55-3.26l1.96-7.39c-0.34-0.15-0.69-0.29-1.04-0.43l-3.85,6.6c-2-0.73-4.09-1.27-6.24-1.63l-0.11-7.64
	c-0.37-0.05-0.74-0.1-1.12-0.14l-1.93,7.41c-0.88-0.07-1.76-0.11-2.65-0.11c-1.28,0-2.55,0.07-3.79,0.21l-2.16-7.33
	c-0.37,0.05-0.74,0.11-1.11,0.17l0.14,7.64c-2.14,0.43-4.2,1.05-6.17,1.84l-4.06-6.48c-0.34,0.15-0.69,0.3-1.02,0.46l2.2,7.33
	c-1.92,0.98-3.75,2.13-5.45,3.44L30,24.45c-0.29,0.24-0.57,0.49-0.86,0.73l4.09,6.45c-1.58,1.46-3.03,3.05-4.32,4.78l-6.83-3.42
	c-0.22,0.31-0.43,0.61-0.64,0.93l5.69,5.11c-1.13,1.82-2.09,3.75-2.87,5.77l-7.51-1.45c-0.12,0.35-0.25,0.71-0.36,1.06l6.86,3.39
	c-0.59,2.04-1,4.15-1.21,6.33l-7.61,0.63c-0.02,0.37-0.04,0.75-0.06,1.13l7.51,1.41c0,0.08-0.01,0.16-0.01,0.25
	c0,2.11,0.2,4.17,0.55,6.17l-7.18,2.66c0.08,0.37,0.17,0.73,0.25,1.1l7.62-0.66c0.57,2.1,1.32,4.12,2.25,6.04l-6.18,4.49
	c0.17,0.33,0.35,0.66,0.53,0.99l7.16-2.7c1.11,1.85,2.39,3.59,3.81,5.2l-4.74,6c0.26,0.27,0.51,0.55,0.78,0.82l6.17-4.53
	c1.56,1.48,3.25,2.81,5.06,3.99l-2.95,7.07c0.32,0.19,0.65,0.38,0.98,0.56l4.71-6.02c1.89,1,3.88,1.84,5.95,2.48l-0.94,7.58
	c0.36,0.1,0.72,0.2,1.09,0.29l2.92-7.07c2.07,0.44,4.21,0.7,6.4,0.76l1.15,7.57c0.38,0,0.75-0.02,1.13-0.03l0.9-7.59
	c2.18-0.13,4.31-0.46,6.37-0.97l3.14,6.97c0.36-0.1,0.72-0.2,1.08-0.31l-1.18-7.57c2.05-0.71,4.01-1.61,5.86-2.67l4.91,5.87
	c0.32-0.2,0.63-0.4,0.95-0.61l-3.18-6.96c1.77-1.23,3.42-2.62,4.93-4.14l6.3,4.32c0.26-0.28,0.51-0.56,0.75-0.84l-4.93-5.83
	c1.37-1.65,2.58-3.44,3.63-5.32l7.24,2.46c0.17-0.33,0.35-0.66,0.51-1l-6.34-4.3c0.86-1.95,1.56-3.99,2.06-6.11l7.65,0.42
	c0.07-0.37,0.13-0.74,0.2-1.11l-7.25-2.42C92.19,60.94,92.32,59.26,92.32,57.55z M86.8,57.67c0,3.55-0.63,6.96-1.77,10.12
	l-16.81-9.27l18.27-5.13C86.69,54.78,86.8,56.21,86.8,57.67z M86.06,51.06l-18.9,1.27l12.46-14.04
	C82.72,41.9,84.97,46.26,86.06,51.06z M77.98,36.53L62.92,47.71l2.88-18.48C70.44,30.65,74.61,33.19,77.98,36.53z M49.07,57.24
	c0-4.46,3.62-8.08,8.08-8.08c4.46,0,8.08,3.62,8.08,8.08c0,4.46-3.62,8.08-8.08,8.08C52.69,65.32,49.07,61.71,49.07,57.24z
	 M57.06,27.92c2.2,0,4.33,0.24,6.39,0.7l-6.6,17.49l-7.59-17.14C51.74,28.29,54.36,27.92,57.06,27.92z M46.96,29.68l3.92,18.36
	l-15.8-10.42C38.3,34.09,42.37,31.34,46.96,29.68z M33.55,39.44L46.9,52.9l-19.17-0.22C28.57,47.75,30.61,43.23,33.55,39.44z
	 M27.43,54.98l18.74,4.16l-16.45,10.3c-1.56-3.61-2.42-7.59-2.42-11.77C27.31,56.76,27.35,55.86,27.43,54.98z M30.71,71.49
	l18.23-6.72l-8.33,17.69C36.46,79.7,33.04,75.92,30.71,71.49z M42.53,83.63l11.79-15.61l2.56,19.4
	C51.67,87.38,46.78,86.01,42.53,83.63z M59.12,87.34l1.47-19.5l12.56,14.84C69.05,85.32,64.27,86.98,59.12,87.34z M75.01,81.38
	L65.78,64.3l18.38,5.63C82.1,74.47,78.94,78.4,75.01,81.38z"/>
<g>
</g>
<g>
</g>
<g>
</g>
<g>
</g>
<g>
</g>
</svg>
