<?xml version="1.0" encoding="utf-8"?>
<!-- Generator: Adobe Illustrator 23.1.0, SVG Export Plug-In . SVG Version: 6.00 Build 0)  -->
<svg version="1.1" id="Layer_1" xmlns="http://www.w3.org/2000/svg" xmlns:xlink="http://www.w3.org/1999/xlink" x="0px" y="0px"
	 viewBox="0 0 114.11 115.34" style="enable-background:new 0 0 114.11 115.34;" xml:space="preserve">
<style type="text/css">
	.st0{fill:#996600;stroke:#000000;stroke-width:0.4512;stroke-miterlimit:10;}
	.st1{fill:#333333;stroke:#000000;stroke-width:0.4512;stroke-miterlimit:10;}
</style>
<circle class="st0" cx="56.87" cy="57.67" r="47.68"/>
<path class="st1" d="M56.83,47.55c-5.59,0-10.13,4.53-10.13,10.13S51.24,67.8,56.83,67.8s10.13-4.53,10.13-10.13
	S62.42,47.55,56.83,47.55z M56.87,65.39c-4.26,0-7.72-3.46-7.72-7.72c0-4.26,3.46-7.72,7.72-7.72c4.26,0,7.72,3.46,7.72,7.72
	C64.59,61.94,61.13,65.39,56.87,65.39z"/>
<path class="st1" d="M105.31,57.38c0-0.35-0.02-0.7-0.03-1.05l4.5-1.02c-0.08-1.79-0.24-3.55-0.49-5.29l-4.57-0.2
	c-0.35-2.21-0.85-4.38-1.49-6.48l3.99-2.16c-0.55-1.7-1.19-3.35-1.91-4.97l-4.41,1.03c-0.93-2.02-2-3.97-3.19-5.83l3.24-3.14
	c-0.99-1.48-2.05-2.91-3.18-4.29l-3.94,2.16c-1.44-1.69-2.98-3.28-4.63-4.76l2.25-3.86c-1.35-1.16-2.76-2.26-4.22-3.28l-3.18,3.11
	c-1.83-1.24-3.75-2.35-5.75-3.33l1.12-4.32c-1.61-0.76-3.26-1.43-4.95-2.03l-2.23,3.87C70.15,10.85,68,10.3,65.8,9.89l-0.08-4.47
	c-1.74-0.29-3.51-0.5-5.31-0.62l-1.1,4.33C58.54,9.1,57.78,9.08,57,9.08c-1.46,0-2.91,0.08-4.34,0.2l-1.3-4.32
	c-1.78,0.19-3.54,0.46-5.27,0.82l0.11,4.52c-2.18,0.5-4.31,1.14-6.36,1.92l-2.43-3.83c-1.66,0.66-3.27,1.39-4.84,2.21l1.33,4.35
	c-1.95,1.07-3.82,2.27-5.6,3.58l-3.41-3.07c-1.41,1.07-2.76,2.22-4.06,3.42l2.49,3.89c-1.59,1.54-3.07,3.2-4.43,4.95l-4.19-2.07
	c-1.06,1.4-2.06,2.86-2.99,4.36l3.51,3.12c-1.11,1.91-2.09,3.9-2.94,5.96l-4.65-0.88c-0.64,1.63-1.2,3.29-1.68,4.99l4.26,2.08
	c-0.55,2.13-0.94,4.31-1.2,6.54l-4.79,0.42c-0.17,1.72-0.26,3.47-0.27,5.24l4.76,0.87c0.05,2.25,0.24,4.46,0.58,6.62L4.76,66.7
	c0.3,1.73,0.68,3.44,1.15,5.11l4.86-0.45c0.65,2.14,1.44,4.21,2.36,6.21L9.16,80.5c0.76,1.57,1.59,3.1,2.49,4.59l4.62-1.77
	c1.19,1.87,2.51,3.66,3.95,5.34l-3.05,3.9c1.15,1.31,2.36,2.56,3.63,3.74l3.98-2.96c1.65,1.48,3.4,2.85,5.24,4.09l-1.89,4.59
	c1.45,0.94,2.96,1.82,4.5,2.62l3.05-3.93c1.98,0.98,4.03,1.82,6.15,2.52l-0.59,4.96c1.65,0.51,3.33,0.94,5.04,1.29l1.88-4.62
	c2.15,0.4,4.36,0.66,6.6,0.77l0.76,4.89c0.46,0.01,0.92,0.03,1.38,0.03c1.29,0,2.57-0.06,3.84-0.15l0.56-4.91
	c2.24-0.2,4.42-0.55,6.56-1.04l2.05,4.49c1.7-0.43,3.36-0.94,4.99-1.53l-0.78-4.85c2.09-0.79,4.11-1.72,6.04-2.77l3.14,3.71
	c1.52-0.88,2.99-1.82,4.41-2.84l-2.03-4.4c1.79-1.32,3.47-2.76,5.06-4.31l3.98,2.7c1.23-1.25,2.39-2.57,3.49-3.93l-3.11-3.64
	c1.36-1.74,2.6-3.58,3.72-5.5l4.51,1.51c0.84-1.54,1.62-3.12,2.31-4.74l-3.92-2.63c0.84-2.04,1.55-4.14,2.1-6.31l4.65,0.23
	c0.4-1.71,0.71-3.45,0.94-5.21l-4.41-1.45C105.19,61.13,105.31,59.27,105.31,57.38z M56.87,103.43c-25.27,0-45.75-20.48-45.75-45.75
	c0-25.27,20.48-45.75,45.75-45.75c25.27,0,45.75,20.48,45.75,45.75C102.62,82.94,82.14,103.43,56.87,103.43z"/>
<circle class="st1" cx="56.87" cy="57.67" r="2.56"/>
<g>
</g>
<g>
</g>
<g>
</g>
<g>
</g>
<g>
</g>
</svg>
