<?xml version="1.0" encoding="utf-8"?>
<!-- Generator: Adobe Illustrator 23.1.0, SVG Export Plug-In . SVG Version: 6.00 Build 0)  -->
<svg version="1.1" id="Layer_1" xmlns="http://www.w3.org/2000/svg" xmlns:xlink="http://www.w3.org/1999/xlink" x="0px" y="0px"
	 viewBox="0 0 114.11 115.34" style="enable-background:new 0 0 114.11 115.34;" xml:space="preserve">
<style type="text/css">
	.st0{fill:#333333;stroke:#000000;stroke-width:0.4512;stroke-miterlimit:10;}
	.st1{fill:#996600;stroke:#000000;stroke-width:0.4512;stroke-miterlimit:10;}
	.st2{fill:none;stroke:#000000;stroke-width:0.4512;stroke-miterlimit:10;}
</style>
<path class="st0" d="M109.47,50.02l-4.57-0.2c-0.35-2.21-0.85-4.38-1.49-6.48l3.99-2.16c-0.55-1.7-1.19-3.35-1.91-4.97l-4.41,1.03
	c-0.93-2.02-2-3.97-3.19-5.83l3.24-3.14c-0.99-1.48-2.05-2.91-3.18-4.29l-3.94,2.16c-1.44-1.69-2.98-3.28-4.63-4.76l2.25-3.86
	c-1.35-1.16-2.76-2.26-4.22-3.28l-3.18,3.11c-1.83-1.24-3.75-2.35-5.75-3.33l1.12-4.32c-1.61-0.76-3.26-1.43-4.95-2.03l-2.23,3.87
	c-2.09-0.69-4.23-1.25-6.44-1.65L65.9,5.41c-1.74-0.29-3.51-0.5-5.31-0.62l-1.1,4.33c-0.76-0.04-1.53-0.06-2.3-0.06
	c-1.46,0-2.91,0.08-4.34,0.2l-1.3-4.32c-1.78,0.19-3.54,0.46-5.27,0.82l0.11,4.52c-2.18,0.5-4.31,1.14-6.36,1.92L37.6,8.39
	c-1.66,0.66-3.27,1.39-4.84,2.21l1.33,4.35c-1.95,1.07-3.82,2.27-5.6,3.58l-3.41-3.07c-1.41,1.07-2.76,2.22-4.06,3.42l2.49,3.89
	c-1.59,1.54-3.07,3.2-4.43,4.95l-4.19-2.07c-1.06,1.4-2.06,2.86-2.99,4.36l3.51,3.12c-1.11,1.91-2.09,3.9-2.94,5.96l-4.65-0.88
	c-0.64,1.63-1.2,3.29-1.68,4.99l4.26,2.08c-0.55,2.13-0.94,4.31-1.2,6.54l-4.79,0.42c-0.17,1.72-0.26,3.47-0.27,5.24l4.76,0.87
	c0.05,2.25,0.24,4.46,0.58,6.62L4.94,66.7c0.3,1.73,0.68,3.44,1.15,5.11l4.86-0.45c0.65,2.14,1.44,4.21,2.36,6.21l-3.97,2.92
	c0.76,1.57,1.59,3.1,2.49,4.59l4.62-1.77c1.19,1.87,2.51,3.66,3.95,5.34l-3.05,3.9c1.15,1.31,2.36,2.56,3.63,3.74l3.98-2.96
	c1.65,1.48,3.4,2.85,5.24,4.09l-1.89,4.59c1.45,0.94,2.96,1.82,4.5,2.62l3.05-3.93c1.98,0.98,4.03,1.82,6.15,2.52l-0.59,4.96
	c1.65,0.51,3.33,0.94,5.04,1.29l1.88-4.62c2.15,0.4,4.36,0.66,6.6,0.77l0.76,4.89c0.46,0.01,0.92,0.03,1.38,0.03
	c1.29,0,2.57-0.06,3.84-0.15l0.56-4.91c2.24-0.2,4.42-0.55,6.56-1.04l2.05,4.49c1.7-0.43,3.36-0.94,4.99-1.53l-0.78-4.85
	c2.09-0.79,4.11-1.72,6.04-2.77l3.14,3.71c1.52-0.88,2.99-1.82,4.41-2.84l-2.03-4.4c1.79-1.32,3.47-2.76,5.06-4.31l3.98,2.7
	c1.23-1.25,2.39-2.57,3.49-3.93l-3.11-3.64c1.36-1.74,2.6-3.58,3.72-5.5l4.51,1.51c0.84-1.54,1.62-3.12,2.31-4.74l-3.92-2.63
	c0.84-2.04,1.55-4.14,2.1-6.31l4.65,0.23c0.4-1.71,0.71-3.45,0.94-5.21l-4.41-1.45c0.21-1.83,0.33-3.7,0.33-5.59
	c0-0.35-0.02-0.7-0.03-1.05l4.5-1.02C109.88,53.52,109.72,51.75,109.47,50.02z"/>
<path class="st1" d="M92.28,57.67c0-0.47-0.02-0.93-0.04-1.39l7.46-1.66c-0.03-0.38-0.05-0.75-0.09-1.12l-7.64-0.38
	c-0.28-2.16-0.75-4.27-1.4-6.29l6.74-3.61c-0.13-0.35-0.26-0.7-0.4-1.05l-7.45,1.69c-0.85-1.99-1.88-3.89-3.06-5.67l5.51-5.29
	c-0.22-0.31-0.43-0.61-0.66-0.91l-6.73,3.65c-1.35-1.68-2.85-3.23-4.47-4.63l3.88-6.59c-0.29-0.24-0.59-0.47-0.89-0.7l-5.49,5.32
	c-1.74-1.25-3.6-2.35-5.55-3.26l1.96-7.39c-0.34-0.15-0.69-0.29-1.04-0.43l-3.85,6.6c-2-0.73-4.09-1.27-6.24-1.63l-0.11-7.64
	c-0.37-0.05-0.74-0.1-1.12-0.14l-1.93,7.41c-0.88-0.07-1.76-0.11-2.65-0.11c-1.28,0-2.55,0.07-3.79,0.21l-2.16-7.33
	c-0.37,0.05-0.74,0.11-1.11,0.17l0.14,7.64c-2.14,0.43-4.2,1.05-6.17,1.84l-4.06-6.48c-0.34,0.15-0.69,0.3-1.02,0.46l2.2,7.33
	c-1.92,0.98-3.75,2.13-5.45,3.44l-5.66-5.15c-0.29,0.24-0.57,0.49-0.86,0.73l4.09,6.45c-1.58,1.46-3.03,3.05-4.32,4.78l-6.83-3.42
	c-0.22,0.31-0.43,0.61-0.64,0.93l5.69,5.11c-1.13,1.82-2.09,3.75-2.87,5.77l-7.51-1.45c-0.12,0.35-0.25,0.71-0.36,1.06l6.86,3.39
	c-0.59,2.04-1,4.15-1.21,6.33l-7.61,0.63c-0.02,0.37-0.04,0.75-0.06,1.13l7.51,1.41c0,0.08-0.01,0.16-0.01,0.25
	c0,2.11,0.2,4.17,0.55,6.17L15.2,66.5c0.08,0.37,0.17,0.73,0.25,1.1l7.62-0.66c0.57,2.1,1.32,4.12,2.25,6.04l-6.18,4.49
	c0.17,0.33,0.35,0.66,0.53,0.99l7.16-2.7c1.11,1.85,2.39,3.59,3.81,5.2l-4.74,6c0.26,0.27,0.51,0.55,0.78,0.82l6.17-4.53
	c1.56,1.48,3.25,2.81,5.06,3.99l-2.95,7.07c0.32,0.19,0.65,0.38,0.98,0.56l4.71-6.02c1.89,1,3.88,1.84,5.95,2.48l-0.94,7.58
	c0.36,0.1,0.72,0.2,1.09,0.29l2.92-7.07c2.07,0.44,4.21,0.7,6.4,0.76l1.15,7.57c0.38,0,0.75-0.02,1.13-0.03l0.9-7.59
	c2.18-0.13,4.31-0.46,6.37-0.97l3.14,6.97c0.36-0.1,0.72-0.2,1.08-0.31l-1.18-7.57c2.05-0.71,4.01-1.61,5.86-2.67l4.91,5.87
	c0.32-0.2,0.63-0.4,0.95-0.61l-3.18-6.96c1.77-1.23,3.42-2.62,4.93-4.14l6.3,4.32c0.26-0.28,0.51-0.56,0.75-0.84l-4.93-5.83
	c1.37-1.65,2.58-3.44,3.63-5.32l7.24,2.46c0.17-0.33,0.35-0.66,0.51-1l-6.34-4.3c0.86-1.95,1.56-3.99,2.06-6.11l7.65,0.42
	c0.07-0.37,0.13-0.74,0.2-1.11l-7.25-2.42C92.15,61.06,92.28,59.38,92.28,57.67z"/>
<circle class="st2" cx="57.02" cy="57.67" r="7.72"/>
<circle class="st0" cx="57.02" cy="57.67" r="29.75"/>
<circle class="st1" cx="57.02" cy="57.79" r="7.72"/>
<g>
</g>
<g>
</g>
<g>
</g>
<g>
</g>
<g>
</g>
</svg>
