<?xml version="1.0" encoding="utf-8"?>
<!-- Generator: Adobe Illustrator 23.1.0, SVG Export Plug-In . SVG Version: 6.00 Build 0)  -->
<svg version="1.1" id="Layer_1" xmlns="http://www.w3.org/2000/svg" xmlns:xlink="http://www.w3.org/1999/xlink" x="0px" y="0px"
	 viewBox="0 0 114.11 115.34" style="enable-background:new 0 0 114.11 115.34;" xml:space="preserve">
<style type="text/css">
	.st0{fill:none;}
	.st1{fill:#996600;stroke:#000000;stroke-width:0.3579;stroke-miterlimit:10;}
</style>
<g>
	<path class="st0" d="M0,76.6c0,0,11.75-12.16,57.58-21.27s56.53-29.98,56.53-29.98"/>
	<path class="st1" d="M9.93,60.06l2.49,2l2.42,5.24c0.07,0.16,0.31,0.24,0.7,0.26l-2.38,1.1c0.24-0.31,0.33-0.54,0.26-0.7L11,62.72
		l-1.25-1l-0.18,1.65l2.42,5.24c0.07,0.16,0.31,0.24,0.7,0.26l-2.38,1.1c0.24-0.31,0.33-0.54,0.26-0.7L4.85,56.89
		c-0.07-0.16-0.31-0.24-0.7-0.26l2.38-1.1c-0.24,0.31-0.33,0.54-0.26,0.7l1.98,4.28l0.33-3.04l-0.88-1.9
		c-0.07-0.16-0.31-0.24-0.7-0.26l2.38-1.1c-0.24,0.31-0.33,0.54-0.26,0.7l1.1,2.38L9.93,60.06z"/>
	<path class="st1" d="M16.62,58.35c0.17-0.07,0.27-0.29,0.29-0.68l0.97,2.44c-0.29-0.26-0.52-0.36-0.68-0.29l-1.71,0.67l1.27,3.18
		c0.13,0.32,0.36,0.42,0.68,0.29l0.49-0.19c0.32-0.13,0.42-0.36,0.29-0.69l-0.68-1.69L19,60.79l1.07,2.68
		c0.06,0.16,0.29,0.26,0.68,0.29l-0.07,0.03c-0.62,0.25-1.05,0.51-1.29,0.79c-0.27,0.29-0.65,0.53-1.13,0.73
		c-0.49,0.19-0.92,0.27-1.3,0.24c-0.38-0.04-0.88,0.07-1.5,0.32l-0.07,0.03c0.26-0.29,0.36-0.52,0.29-0.68l-3.88-9.74
		c-0.06-0.16-0.29-0.26-0.68-0.29c0.65-0.27,1.1-0.54,1.37-0.83c0.24-0.28,0.59-0.52,1.05-0.7l0.12-0.05
		c0.46-0.18,0.88-0.26,1.27-0.22c0.38,0.03,0.9-0.08,1.55-0.33c-0.26,0.29-0.36,0.52-0.29,0.68l1.07,2.68l-1.46,0.58l-0.68-1.71
		c-0.13-0.32-0.35-0.41-0.68-0.28l-0.49,0.19c-0.32,0.13-0.42,0.35-0.3,0.67l1.27,3.18L16.62,58.35z"/>
	<path class="st1" d="M20.68,55.43l2.43,6.93c0.06,0.17,0.28,0.27,0.67,0.32l-2.47,0.87c0.27-0.28,0.38-0.5,0.32-0.67l-3.47-9.9
		c-0.06-0.16-0.28-0.27-0.67-0.32l2.47-0.87c-0.27,0.28-0.38,0.5-0.32,0.67l0.17,0.49l2,0.96l-0.69-1.98
		c-0.06-0.16-0.28-0.27-0.67-0.32l2.47-0.87c-0.27,0.28-0.38,0.5-0.32,0.67l3.47,9.9c0.06,0.17,0.28,0.27,0.67,0.32l-2.47,0.87
		c0.27-0.28,0.38-0.5,0.32-0.67l-1.91-5.44L20.68,55.43z"/>
	<path class="st1" d="M26.97,53.31l2.18,7.01c0.05,0.17,0.27,0.28,0.66,0.34l-2.5,0.78c0.28-0.27,0.4-0.49,0.34-0.66l-3.12-10.01
		c-0.05-0.17-0.27-0.28-0.66-0.34l2.5-0.78c-0.28,0.27-0.4,0.49-0.34,0.66l0.16,0.5l1.97,1.03l-0.62-2
		c-0.05-0.17-0.27-0.28-0.66-0.34l2.5-0.78c-0.28,0.27-0.4,0.49-0.34,0.66l3.12,10.01c0.05,0.17,0.27,0.28,0.66,0.34l-2.5,0.78
		c0.28-0.27,0.4-0.49,0.34-0.66l-1.72-5.51L26.97,53.31z"/>
	<path class="st1" d="M35.43,52.18c0.17-0.05,0.3-0.26,0.36-0.65l0.71,2.52c-0.26-0.29-0.48-0.41-0.65-0.36l-1.77,0.48L35,57.47
		c0.09,0.34,0.31,0.46,0.65,0.36l0.5-0.14c0.34-0.09,0.46-0.31,0.36-0.66l-0.49-1.76l1.51-0.42l0.78,2.78
		c0.05,0.17,0.26,0.29,0.65,0.36l-0.07,0.02c-0.64,0.18-1.09,0.4-1.36,0.65c-0.3,0.26-0.7,0.46-1.2,0.61
		c-0.51,0.13-0.95,0.17-1.32,0.1c-0.38-0.08-0.89-0.02-1.52,0.15l-0.07,0.02c0.29-0.26,0.41-0.48,0.36-0.65l-2.82-10.1
		c-0.05-0.17-0.26-0.29-0.65-0.36c0.67-0.19,1.16-0.42,1.45-0.68c0.27-0.26,0.64-0.45,1.12-0.58L33,47.14
		c0.48-0.13,0.91-0.16,1.28-0.09c0.37,0.07,0.9,0.01,1.58-0.17c-0.29,0.26-0.41,0.48-0.36,0.65l0.78,2.78l-1.52,0.42l-0.5-1.78
		c-0.09-0.33-0.31-0.45-0.64-0.35l-0.51,0.14c-0.34,0.09-0.46,0.31-0.37,0.64l0.92,3.29L35.43,52.18z"/>
	<path class="st1" d="M43,56.43c0.04,0.17,0.25,0.3,0.64,0.38l-2.54,0.64c0.3-0.25,0.42-0.47,0.38-0.64l-2.3-9.15l-0.51,0.13
		c-0.51,0.13-0.76,0.55-0.76,1.27l-0.51-2.03c-0.04-0.17-0.25-0.3-0.64-0.38c0.68-0.18,1.17-0.39,1.47-0.64
		c0.28-0.25,0.65-0.43,1.14-0.56l0.12-0.03c0.48-0.12,0.91-0.14,1.28-0.05c0.37,0.08,0.9,0.04,1.58-0.13
		c-0.3,0.25-0.42,0.47-0.38,0.64l0.51,2.03c-0.34-0.64-0.76-0.89-1.27-0.76l-0.51,0.13L43,56.43z"/>
	<path class="st1" d="M46.7,50.96l0.99,4.35c0.04,0.17,0.25,0.3,0.63,0.4l-2.56,0.58c0.3-0.25,0.43-0.46,0.4-0.63l-2.32-10.23
		c-0.04-0.17-0.25-0.3-0.63-0.4l2.56-0.58c-0.3,0.25-0.43,0.46-0.4,0.63l0.99,4.35l1.53-0.35l-0.99-4.35
		c-0.04-0.17-0.25-0.3-0.63-0.4l2.56-0.58c-0.3,0.25-0.43,0.46-0.4,0.63l2.32,10.23c0.04,0.17,0.25,0.3,0.63,0.4l-2.56,0.58
		c0.3-0.25,0.43-0.46,0.4-0.63l-0.99-4.35L46.7,50.96z"/>
	<path class="st1" d="M62.78,53.69c0.04,0.17,0.25,0.3,0.63,0.4l-0.07,0.02c-0.65,0.14-1.12,0.33-1.4,0.57
		c-0.31,0.24-0.72,0.42-1.23,0.54c-0.51,0.11-0.96,0.11-1.33,0.02c-0.37-0.1-0.88-0.08-1.53,0.07l-0.07,0.02
		c0.3-0.25,0.44-0.45,0.4-0.62l-1.12-5.12c-0.07-0.34-0.32-0.65-0.74-0.91l3.01,1.49c-0.34,0.07-0.47,0.28-0.4,0.62l0.56,2.56
		c0.07,0.34,0.28,0.47,0.62,0.4l0.51-0.11c0.34-0.07,0.48-0.29,0.4-0.63l-0.9-4.09l-3.52-1.38l-1.35-6.15
		c-0.04-0.17-0.25-0.3-0.62-0.4c0.68-0.16,1.18-0.35,1.49-0.59c0.28-0.24,0.67-0.41,1.15-0.52l0.12-0.03
		c0.48-0.11,0.91-0.11,1.29-0.01c0.37,0.09,0.9,0.06,1.58-0.08c-0.3,0.25-0.44,0.45-0.4,0.62l1.12,5.12
		c0.07,0.34,0.32,0.65,0.74,0.91l-3.01-1.49c0.34-0.07,0.48-0.28,0.4-0.62l-0.56-2.57c-0.07-0.33-0.28-0.46-0.62-0.39l-0.51,0.11
		c-0.34,0.07-0.48,0.28-0.4,0.61l0.9,4.11l3.52,1.38L62.78,53.69z"/>
	<path class="st1" d="M65.67,50.27c0.09,0.34,0.3,0.46,0.64,0.37l0.51-0.13c0.34-0.09,0.46-0.31,0.37-0.65l-0.47-1.76l1.52-0.4
		l0.74,2.79c0.04,0.17,0.26,0.29,0.64,0.37l-0.07,0.02c-0.64,0.17-1.1,0.38-1.37,0.63c-0.3,0.25-0.71,0.45-1.21,0.59
		c-0.51,0.13-0.95,0.15-1.32,0.08c-0.38-0.08-0.88-0.04-1.53,0.13l-0.07,0.02c0.29-0.26,0.42-0.47,0.37-0.64l-2.68-10.14
		c-0.04-0.17-0.26-0.29-0.64-0.37c0.67-0.19,1.16-0.4,1.46-0.66c0.27-0.25,0.65-0.44,1.13-0.57l0.12-0.03
		c0.48-0.13,0.91-0.15,1.28-0.07c0.37,0.08,0.9,0.03,1.58-0.15c-0.29,0.26-0.42,0.47-0.37,0.64l0.74,2.79l-1.52,0.4l-0.47-1.78
		c-0.09-0.33-0.3-0.45-0.64-0.36l-0.51,0.13c-0.34,0.09-0.46,0.3-0.38,0.63L65.67,50.27z"/>
	<path class="st1" d="M71.09,45.21l1.34,4.25c0.05,0.17,0.27,0.28,0.66,0.34l-2.5,0.79c0.28-0.27,0.39-0.49,0.34-0.66l-3.16-10
		c-0.05-0.17-0.27-0.28-0.66-0.34l2.5-0.79c-0.28,0.27-0.39,0.49-0.34,0.66l1.34,4.25l1.5-0.47l-1.34-4.25
		c-0.05-0.17-0.27-0.28-0.66-0.34l2.5-0.79c-0.28,0.27-0.39,0.49-0.34,0.66l3.16,10c0.05,0.17,0.27,0.28,0.66,0.34l-2.5,0.79
		c0.28-0.27,0.39-0.49,0.34-0.66l-1.34-4.25L71.09,45.21z"/>
	<path class="st1" d="M79.97,44.08l-2.8-7.35c-0.06-0.16-0.29-0.26-0.68-0.3l2.45-0.93c-0.26,0.29-0.37,0.51-0.3,0.68l3.73,9.8
		c0.06,0.16,0.29,0.26,0.68,0.3l-1.96,0.75l-1.54-1.1l-0.42,1.84l-1.96,0.75c0.26-0.29,0.37-0.51,0.3-0.68l-3.73-9.8
		c-0.06-0.16-0.29-0.26-0.68-0.3l2.45-0.93c-0.26,0.29-0.37,0.51-0.3,0.68l2.8,7.35l0.42-1.84L79.97,44.08z"/>
	<path class="st1" d="M88.68,43.17c0.07,0.16,0.3,0.25,0.7,0.26l-0.07,0.03c-0.6,0.28-1.02,0.56-1.24,0.86
		c-0.25,0.3-0.62,0.56-1.09,0.79c-0.48,0.21-0.91,0.31-1.29,0.3c-0.38-0.02-0.88,0.11-1.48,0.39l-0.07,0.03
		c0.25-0.3,0.33-0.54,0.26-0.7l-4.37-9.53c-0.07-0.16-0.3-0.24-0.7-0.26c0.63-0.3,1.08-0.6,1.33-0.9c0.23-0.3,0.56-0.55,1.02-0.75
		l0.11-0.05c0.45-0.21,0.87-0.3,1.25-0.29c0.38,0.01,0.89-0.13,1.53-0.41c-0.24,0.3-0.33,0.54-0.26,0.7L88.68,43.17z M83.31,35.24
		c-0.14-0.31-0.37-0.39-0.69-0.25l-0.48,0.22c-0.32,0.15-0.41,0.37-0.26,0.69l3.5,7.63c0.15,0.32,0.38,0.4,0.7,0.26l0.48-0.22
		c0.32-0.15,0.4-0.38,0.25-0.7L83.31,35.24z"/>
	<path class="st1" d="M90.78,35.25c0.16-0.09,0.23-0.33,0.21-0.71l1.27,2.29c-0.32-0.22-0.56-0.29-0.71-0.2l-1.61,0.88l1.66,2.99
		c0.17,0.31,0.41,0.37,0.71,0.2l0.46-0.25c0.31-0.17,0.37-0.41,0.2-0.72l-0.88-1.6l1.38-0.76l1.4,2.52c0.08,0.15,0.32,0.22,0.71,0.2
		l-0.06,0.04c-0.58,0.32-0.97,0.64-1.18,0.95c-0.23,0.32-0.57,0.61-1.03,0.87c-0.46,0.25-0.88,0.38-1.26,0.4
		c-0.38,0.01-0.87,0.18-1.45,0.5l-0.06,0.04c0.22-0.32,0.29-0.56,0.2-0.71L85.63,33c-0.08-0.15-0.32-0.22-0.71-0.2
		c0.61-0.34,1.03-0.68,1.26-1c0.2-0.31,0.52-0.59,0.96-0.83l0.11-0.06c0.43-0.24,0.84-0.37,1.23-0.38c0.38-0.02,0.88-0.2,1.49-0.53
		c-0.22,0.32-0.29,0.56-0.21,0.71l1.4,2.52L89.78,34l-0.89-1.61c-0.17-0.3-0.4-0.36-0.71-0.2l-0.46,0.25
		c-0.31,0.17-0.38,0.4-0.21,0.7l1.66,2.99L90.78,35.25z"/>
	<path class="st1" d="M98.19,37.78c0.1,0.14,0.34,0.19,0.73,0.14l-2.17,1.48c0.19-0.34,0.24-0.58,0.14-0.73L90.99,30
		c-0.1-0.14-0.34-0.19-0.73-0.14c0.57-0.4,0.96-0.77,1.16-1.11c0.17-0.33,0.46-0.63,0.88-0.91l0.05-0.04
		c0.58-0.39,1.36-0.5,2.33-0.32c0.48,0.1,0.79,0.1,0.94,0c-0.19,0.34-0.24,0.58-0.14,0.73l1.62,2.38c0.1,0.14,0.23,0.48,0.38,1.01
		c-0.03,0.13-0.06,0.26-0.09,0.38c0.12,0.02,0.25,0.04,0.38,0.06c0.43,0.34,0.7,0.58,0.8,0.73l2.21,3.25
		c0.1,0.14,0.34,0.19,0.73,0.14l-2.17,1.47c0.19-0.34,0.24-0.58,0.14-0.73l-2.22-3.26c-0.19-0.28-0.43-0.33-0.72-0.13l-0.43,0.29
		c-0.29,0.2-0.34,0.44-0.14,0.73L98.19,37.78z M95.66,32.21c0.29-0.2,0.34-0.44,0.14-0.72l-1.63-2.4c-0.19-0.28-0.43-0.33-0.72-0.13
		l-0.43,0.3c-0.29,0.2-0.34,0.44-0.14,0.72l1.63,2.39c0.2,0.29,0.44,0.33,0.73,0.14L95.66,32.21z"/>
	<path class="st1" d="M100.71,27l2.95,1.23l2.75,3.17c0.12,0.13,0.36,0.15,0.74,0.05l-1.98,1.72c0.15-0.36,0.17-0.61,0.05-0.74
		l-2.75-3.17l-1.47-0.61l0.29,1.64l2.75,3.17c0.11,0.13,0.36,0.15,0.74,0.05l-1.98,1.72c0.15-0.36,0.17-0.61,0.05-0.74l-6.87-7.92
		c-0.11-0.13-0.36-0.15-0.74-0.05l1.98-1.72c-0.15,0.36-0.17,0.61-0.05,0.74l2.06,2.38L98.7,24.9l-0.34-0.4
		c-0.11-0.13-0.36-0.15-0.74-0.05l1.98-1.72c-0.15,0.36-0.17,0.61-0.05,0.74l0.69,0.79L100.71,27z"/>
	<path class="st1" d="M106.02,22.88c0.11-0.14,0.09-0.39-0.08-0.74l2.04,1.65c-0.38-0.08-0.63-0.06-0.74,0.08l-1.16,1.42l2.66,2.15
		c0.27,0.22,0.52,0.19,0.74-0.08l0.33-0.41c0.22-0.27,0.19-0.52-0.08-0.74l-1.42-1.15l0.99-1.22l2.24,1.81
		c0.14,0.11,0.38,0.08,0.74-0.08l-0.05,0.06c-0.42,0.52-0.66,0.96-0.73,1.32c-0.09,0.38-0.3,0.78-0.63,1.19
		c-0.34,0.4-0.68,0.68-1.02,0.85c-0.35,0.16-0.74,0.49-1.15,1.01l-0.05,0.06c0.08-0.38,0.06-0.63-0.08-0.74l-8.15-6.6
		c-0.14-0.11-0.38-0.08-0.74,0.08c0.43-0.55,0.7-1.01,0.79-1.4c0.07-0.37,0.26-0.74,0.58-1.13l0.08-0.1c0.31-0.39,0.64-0.66,1-0.81
		c0.35-0.16,0.74-0.51,1.19-1.05c-0.08,0.38-0.06,0.63,0.08,0.74l2.24,1.82l-0.99,1.22l-1.43-1.16c-0.27-0.22-0.51-0.19-0.73,0.08
		l-0.33,0.41c-0.22,0.27-0.2,0.52,0.07,0.73l2.66,2.15L106.02,22.88z"/>
</g>
<g>
	<path class="st0" d="M12.8,76.54c0,0,23.04-13.53,46.81-14.16c23.77-0.64,44.6-12.04,44.6-12.04"/>
	<path d="M22.66,70.6l-1.33-3.02c-0.02-0.05-0.09-0.08-0.21-0.08l0.72-0.32c-0.07,0.09-0.1,0.16-0.08,0.21l1.65,3.74
		c0.02,0.05,0.09,0.08,0.21,0.08l-0.58,0.25l-0.48-0.31l-0.1,0.56l-0.58,0.25c0.07-0.09,0.1-0.16,0.08-0.21l-1.65-3.74
		c-0.02-0.05-0.09-0.07-0.21-0.08l0.72-0.32c-0.07,0.09-0.1,0.16-0.08,0.21l1.33,3.02l0.1-0.56L22.66,70.6z"/>
	<path d="M23.88,68.45c0.05-0.02,0.08-0.09,0.08-0.21l0.31,0.72c-0.09-0.08-0.16-0.1-0.21-0.08l-0.51,0.21l0.4,0.94
		c0.04,0.1,0.11,0.12,0.21,0.08l0.14-0.06c0.1-0.04,0.12-0.11,0.08-0.21l-0.21-0.5l0.43-0.18l0.34,0.8
		c0.02,0.05,0.09,0.08,0.21,0.08l-0.02,0.01c-0.18,0.08-0.31,0.16-0.38,0.25c-0.08,0.09-0.19,0.16-0.33,0.23
		c-0.15,0.06-0.28,0.09-0.39,0.08c-0.12-0.01-0.27,0.03-0.45,0.1l-0.02,0.01c0.08-0.09,0.1-0.16,0.08-0.21l-1.22-2.9
		c-0.02-0.05-0.09-0.08-0.21-0.08c0.19-0.08,0.33-0.17,0.41-0.26c0.07-0.09,0.17-0.16,0.31-0.22l0.03-0.01
		c0.14-0.06,0.26-0.08,0.38-0.07c0.11,0.01,0.27-0.03,0.46-0.11c-0.08,0.09-0.1,0.16-0.08,0.21l0.34,0.8l-0.43,0.18l-0.22-0.51
		c-0.04-0.09-0.11-0.12-0.21-0.08l-0.14,0.06c-0.1,0.04-0.13,0.11-0.09,0.2l0.4,0.94L23.88,68.45z"/>
	<path d="M24.19,66.88c-0.02-0.05-0.09-0.08-0.21-0.09c0.19-0.08,0.33-0.17,0.41-0.25c0.07-0.09,0.18-0.16,0.31-0.21l0.02-0.01
		c0.19-0.08,0.43-0.06,0.7,0.05c0.13,0.06,0.23,0.08,0.27,0.06c-0.08,0.09-0.11,0.16-0.09,0.2l0.33,0.8
		c0.02,0.05,0.04,0.16,0.05,0.32c-0.02,0.04-0.03,0.07-0.05,0.1c0.03,0.01,0.07,0.03,0.11,0.04c0.11,0.13,0.17,0.21,0.19,0.26
		l0.33,0.8c0.02,0.05,0.09,0.08,0.21,0.09c-0.05,0.02-0.1,0.1-0.16,0.23c-0.12,0.27-0.27,0.45-0.47,0.53l-0.02,0.01
		c-0.14,0.06-0.26,0.08-0.37,0.07c-0.12-0.01-0.27,0.03-0.47,0.11c0.08-0.09,0.11-0.16,0.09-0.21L24.19,66.88z M25.42,67.82
		c0.1-0.04,0.13-0.11,0.09-0.2l-0.33-0.81c-0.04-0.1-0.11-0.12-0.2-0.08l-0.15,0.06c-0.1,0.04-0.13,0.11-0.09,0.2l0.33,0.81
		c0.04,0.1,0.11,0.13,0.21,0.09L25.42,67.82z M25.45,68.32c-0.1,0.04-0.13,0.11-0.09,0.21l0.33,0.8c0.04,0.1,0.11,0.12,0.2,0.08
		l0.15-0.06c0.1-0.04,0.13-0.11,0.09-0.2l-0.33-0.81c-0.04-0.1-0.11-0.12-0.2-0.08L25.45,68.32z"/>
	<path d="M29.98,68.16c0.02,0.05,0.09,0.08,0.2,0.09c-0.05,0.02-0.1,0.09-0.16,0.23c-0.13,0.27-0.29,0.44-0.48,0.52
		c-0.15,0.05-0.28,0.07-0.39,0.06c-0.11-0.01-0.26,0.02-0.45,0.09l-0.02,0.01c0.08-0.09,0.11-0.15,0.09-0.2l-1.44-3.83
		c-0.02-0.05-0.09-0.08-0.2-0.09c0.2-0.08,0.33-0.16,0.42-0.24c0.07-0.08,0.18-0.15,0.32-0.2l0.02-0.01c0.2-0.07,0.43-0.05,0.7,0.07
		c0.13,0.06,0.22,0.08,0.27,0.07c-0.08,0.09-0.11,0.15-0.09,0.2L29.98,68.16z M29.45,68.53c0.1-0.04,0.13-0.1,0.09-0.2l-1.22-3.25
		c-0.04-0.1-0.1-0.13-0.2-0.09l-0.15,0.06c-0.1,0.04-0.13,0.1-0.09,0.2l1.22,3.24c0.04,0.1,0.1,0.13,0.2,0.09L29.45,68.53z"/>
	<path d="M30.72,65.8c0.05-0.02,0.08-0.09,0.1-0.2l0.26,0.74c-0.08-0.08-0.15-0.11-0.2-0.09l-0.52,0.18l0.35,0.97
		c0.04,0.1,0.1,0.13,0.2,0.1l0.15-0.05c0.1-0.04,0.13-0.1,0.09-0.2l-0.18-0.52l0.44-0.16l0.29,0.81c0.02,0.05,0.08,0.08,0.2,0.09
		l-0.02,0.01c-0.19,0.07-0.32,0.14-0.39,0.22c-0.08,0.08-0.2,0.15-0.35,0.21c-0.15,0.05-0.28,0.07-0.39,0.06
		c-0.11-0.01-0.27,0.01-0.45,0.08l-0.02,0.01c0.08-0.08,0.11-0.15,0.1-0.2l-1.06-2.96c-0.02-0.05-0.08-0.08-0.2-0.1
		c0.2-0.07,0.34-0.15,0.42-0.23c0.08-0.08,0.18-0.15,0.32-0.2l0.04-0.01c0.14-0.05,0.27-0.07,0.38-0.05
		c0.11,0.01,0.27-0.02,0.47-0.08c-0.08,0.08-0.11,0.15-0.1,0.2l0.29,0.81l-0.44,0.16l-0.19-0.52c-0.03-0.1-0.1-0.13-0.2-0.09
		l-0.15,0.05c-0.1,0.04-0.13,0.1-0.1,0.2l0.35,0.97L30.72,65.8z"/>
	<path d="M32.58,66.98l-0.7-0.59l-0.73-2.16c-0.02-0.05-0.08-0.08-0.2-0.1l0.74-0.25c-0.08,0.08-0.11,0.15-0.1,0.2l0.68,2.01
		l0.35,0.3l0.1-0.45l-0.68-2.01c-0.02-0.05-0.08-0.08-0.2-0.1l0.74-0.25c-0.08,0.08-0.11,0.15-0.1,0.2l0.73,2.16l-0.19,0.9
		l0.03,0.07c0.02,0.05,0.08,0.08,0.2,0.1l-0.74,0.25c0.08-0.08,0.12-0.15,0.1-0.2L32.58,66.98z"/>
	<path d="M34.34,64.58c0.05-0.02,0.09-0.08,0.1-0.2l0.24,0.75c-0.08-0.08-0.15-0.12-0.2-0.1l-0.53,0.17l0.32,0.98
		c0.03,0.1,0.1,0.13,0.2,0.1l0.15-0.05c0.1-0.03,0.13-0.1,0.1-0.2l-0.17-0.52L35,65.36l0.27,0.82c0.02,0.05,0.08,0.08,0.2,0.1
		l-0.02,0.01c-0.19,0.06-0.32,0.13-0.4,0.21c-0.09,0.08-0.2,0.15-0.35,0.2c-0.15,0.05-0.28,0.06-0.4,0.04
		c-0.11-0.02-0.27,0-0.46,0.06l-0.02,0.01c0.08-0.08,0.12-0.15,0.1-0.2l-0.97-2.99c-0.02-0.05-0.08-0.08-0.2-0.1
		c0.2-0.07,0.34-0.14,0.43-0.22c0.08-0.08,0.19-0.14,0.33-0.19l0.04-0.01c0.14-0.05,0.27-0.06,0.38-0.04
		c0.11,0.02,0.27-0.01,0.47-0.07c-0.08,0.08-0.12,0.15-0.1,0.2l0.27,0.82l-0.45,0.15l-0.17-0.53c-0.03-0.1-0.1-0.13-0.2-0.1
		l-0.15,0.05c-0.1,0.03-0.13,0.1-0.1,0.2l0.32,0.98L34.34,64.58z"/>
	<path d="M36.09,65.59c0.03,0.1,0.1,0.13,0.2,0.1l0.15-0.05c0.1-0.03,0.13-0.1,0.1-0.2l-0.16-0.52l0.45-0.14l0.25,0.83
		c0.02,0.05,0.08,0.09,0.2,0.1l-0.02,0.01c-0.19,0.06-0.33,0.13-0.4,0.21c-0.09,0.08-0.21,0.14-0.36,0.19
		c-0.15,0.04-0.28,0.06-0.4,0.04c-0.11-0.02-0.27,0-0.46,0.06l-0.02,0.01c0.08-0.08,0.12-0.15,0.1-0.2l-0.92-3.01
		c-0.02-0.05-0.08-0.08-0.2-0.1l0.75-0.23c-0.08,0.08-0.12,0.15-0.1,0.2L36.09,65.59z"/>
	<path d="M38.87,65.1c0.01,0.05,0.08,0.09,0.19,0.11l-0.02,0.01c-0.19,0.05-0.33,0.12-0.41,0.2c-0.09,0.08-0.21,0.14-0.36,0.19
		c-0.15,0.04-0.28,0.05-0.4,0.03c-0.11-0.02-0.27-0.01-0.46,0.05l-0.02,0.01c0.09-0.08,0.12-0.14,0.11-0.19l-0.87-3.02
		c-0.01-0.05-0.08-0.09-0.19-0.11c0.2-0.06,0.35-0.13,0.44-0.21c0.08-0.08,0.19-0.14,0.33-0.18l0.04-0.01
		c0.14-0.04,0.27-0.05,0.38-0.03c0.11,0.02,0.27,0,0.47-0.05c-0.09,0.08-0.12,0.14-0.11,0.19L38.87,65.1z M37.64,62.5
		c-0.03-0.1-0.09-0.13-0.19-0.1l-0.15,0.04c-0.1,0.03-0.14,0.09-0.11,0.19l0.69,2.42c0.03,0.1,0.09,0.14,0.19,0.11l0.15-0.04
		c0.1-0.03,0.14-0.1,0.11-0.2L37.64,62.5z"/>
	<path d="M38.33,61.82c0.2-0.06,0.35-0.12,0.44-0.2c0.08-0.08,0.19-0.13,0.34-0.17l0.02,0c0.2-0.05,0.43-0.01,0.69,0.14
		c0.13,0.07,0.21,0.1,0.27,0.09c-0.09,0.08-0.13,0.14-0.11,0.19l0.22,0.84c0.01,0.05,0.08,0.09,0.19,0.11
		c-0.05,0.01-0.11,0.08-0.18,0.21c-0.15,0.26-0.33,0.41-0.53,0.47c-0.08,0.02-0.16,0.03-0.23,0.04l0.35,1.32
		c0.01,0.05,0.08,0.09,0.19,0.11l-0.76,0.2c0.09-0.08,0.13-0.14,0.11-0.19l-0.81-3.04C38.51,61.88,38.45,61.84,38.33,61.82z
		 M39.63,63.02c0.1-0.03,0.14-0.09,0.11-0.19l-0.23-0.84c-0.03-0.1-0.09-0.14-0.19-0.11l-0.15,0.04c-0.1,0.03-0.14,0.09-0.11,0.19
		l0.22,0.84c0.03,0.1,0.09,0.14,0.19,0.11L39.63,63.02z"/>
	<path d="M41.69,62.49c0.05-0.01,0.09-0.08,0.11-0.19l0.19,0.76c-0.08-0.09-0.14-0.13-0.19-0.11l-0.53,0.13l0.25,1
		c0.03,0.1,0.09,0.14,0.19,0.11l0.15-0.04c0.1-0.02,0.14-0.09,0.11-0.19l-0.13-0.53l0.46-0.11l0.21,0.84
		c0.01,0.05,0.08,0.09,0.19,0.12l-0.02,0c-0.19,0.05-0.33,0.11-0.41,0.18c-0.09,0.07-0.21,0.13-0.37,0.17
		c-0.15,0.04-0.29,0.04-0.4,0.02c-0.11-0.03-0.27-0.02-0.46,0.03l-0.02,0c0.09-0.08,0.13-0.14,0.11-0.19l-0.76-3.05
		c-0.01-0.05-0.08-0.09-0.19-0.11c0.2-0.05,0.35-0.12,0.44-0.19c0.08-0.08,0.2-0.13,0.34-0.17L41,60.96
		c0.14-0.04,0.27-0.04,0.39-0.01c0.11,0.02,0.27,0.01,0.47-0.04c-0.09,0.08-0.13,0.14-0.11,0.19l0.21,0.84l-0.46,0.11l-0.13-0.54
		c-0.03-0.1-0.09-0.14-0.19-0.11l-0.15,0.04c-0.1,0.03-0.14,0.09-0.11,0.19l0.25,0.99L41.69,62.49z"/>
	<path d="M43.42,63.93c0.01,0.05,0.07,0.09,0.19,0.12l-0.77,0.18c0.09-0.07,0.13-0.14,0.12-0.19l-0.7-3.07
		c-0.01-0.05-0.07-0.09-0.19-0.12c0.2-0.05,0.35-0.11,0.45-0.18c0.08-0.07,0.2-0.13,0.34-0.16l0.02,0c0.2-0.05,0.43,0.01,0.69,0.17
		c0.12,0.08,0.21,0.11,0.26,0.1c-0.09,0.07-0.13,0.14-0.12,0.19l0.19,0.84c0.01,0.05,0.01,0.16,0,0.32
		c-0.02,0.03-0.04,0.06-0.06,0.1c0.03,0.02,0.07,0.04,0.1,0.06c0.08,0.14,0.13,0.24,0.14,0.29l0.26,1.15
		c0.01,0.05,0.07,0.09,0.19,0.12l-0.77,0.18c0.09-0.07,0.13-0.14,0.12-0.19l-0.26-1.15c-0.02-0.1-0.09-0.14-0.19-0.12l-0.15,0.04
		c-0.1,0.02-0.14,0.09-0.12,0.19L43.42,63.93z M43.32,62.1c0.1-0.02,0.14-0.09,0.12-0.19l-0.19-0.85c-0.02-0.1-0.09-0.14-0.19-0.11
		l-0.15,0.04c-0.1,0.02-0.14,0.08-0.12,0.19l0.19,0.85c0.02,0.1,0.09,0.14,0.19,0.12L43.32,62.1z"/>
	<path d="M47.35,60.06c-0.09,0.07-0.14,0.13-0.13,0.18l0.53,2.78c0.01,0.05,0.07,0.09,0.18,0.13l-0.77,0.15
		c0.09-0.07,0.13-0.13,0.13-0.18l-0.25-1.31l-0.46,0.09l0.25,1.31c0.01,0.05,0.07,0.09,0.18,0.13l-0.77,0.15
		c0.09-0.07,0.13-0.13,0.13-0.18l-0.53-2.78c-0.01-0.05-0.07-0.09-0.18-0.13c0.05-0.01,0.12-0.08,0.21-0.2
		c0.16-0.25,0.35-0.39,0.56-0.43s0.43,0.02,0.68,0.19C47.21,60.04,47.29,60.07,47.35,60.06z M46.29,60.42l0.19,1.01l0.46-0.09
		l-0.19-1.01c-0.02-0.1-0.08-0.14-0.18-0.12l-0.15,0.03C46.32,60.26,46.27,60.32,46.29,60.42z"/>
	<path d="M48.3,60.69l0.37,2.17c0.01,0.05,0.07,0.09,0.18,0.13l-0.78,0.13c0.09-0.07,0.14-0.13,0.13-0.18l-0.52-3.1
		c-0.01-0.05-0.07-0.09-0.18-0.13l0.78-0.13c-0.09,0.07-0.14,0.13-0.13,0.18l0.03,0.15l0.54,0.39l-0.1-0.62
		c-0.01-0.05-0.07-0.09-0.18-0.13l0.78-0.13c-0.09,0.07-0.14,0.13-0.13,0.18l0.52,3.1c0.01,0.05,0.07,0.09,0.18,0.13l-0.77,0.13
		c0.09-0.07,0.14-0.13,0.13-0.18l-0.29-1.71L48.3,60.69z"/>
	<path d="M51.42,62.12c0.01,0.05,0.07,0.1,0.18,0.13c-0.05,0.01-0.12,0.07-0.21,0.19c-0.18,0.24-0.37,0.37-0.58,0.4
		c-0.16,0.02-0.29,0.01-0.4-0.02c-0.11-0.04-0.26-0.04-0.46-0.01l-0.02,0c0.1-0.07,0.14-0.13,0.13-0.18l-0.46-3.11
		c-0.01-0.05-0.07-0.1-0.18-0.13c0.21-0.03,0.36-0.08,0.46-0.15c0.09-0.07,0.21-0.11,0.36-0.13l0.02,0
		c0.21-0.03,0.43,0.04,0.67,0.22c0.12,0.09,0.2,0.13,0.25,0.12c-0.1,0.07-0.14,0.13-0.13,0.18L51.42,62.12z M50.82,62.36
		c0.1-0.02,0.15-0.07,0.13-0.18l-0.37-2.5c-0.01-0.1-0.07-0.15-0.18-0.13l-0.16,0.02c-0.1,0.02-0.15,0.07-0.13,0.18l0.36,2.49
		c0.02,0.1,0.07,0.15,0.18,0.13L50.82,62.36z"/>
	<path d="M54.92,62.18c0.01,0.05,0.06,0.1,0.17,0.14c-0.05,0.01-0.12,0.07-0.22,0.18c-0.19,0.23-0.39,0.36-0.6,0.38
		c-0.16,0.01-0.29,0-0.4-0.04c-0.11-0.04-0.26-0.05-0.46-0.03l-0.02,0c0.1-0.06,0.15-0.12,0.14-0.17l-0.42-4.07
		c-0.01-0.05-0.06-0.1-0.17-0.14c0.21-0.02,0.36-0.07,0.46-0.13c0.09-0.06,0.21-0.1,0.36-0.12l0.02,0c0.21-0.02,0.43,0.06,0.66,0.25
		c0.11,0.09,0.19,0.14,0.25,0.13c-0.1,0.06-0.15,0.12-0.14,0.17L54.92,62.18z M54.31,62.4c0.1-0.01,0.15-0.07,0.14-0.17l-0.35-3.45
		c-0.01-0.1-0.07-0.15-0.17-0.14l-0.16,0.02c-0.1,0.01-0.15,0.07-0.14,0.17l0.35,3.45c0.01,0.1,0.07,0.15,0.17,0.14L54.31,62.4z"/>
	<path d="M56.26,60.1c0.05,0,0.1-0.06,0.15-0.17l0.06,0.78c-0.06-0.1-0.12-0.15-0.17-0.15l-0.55,0.04l0.08,1.02
		c0.01,0.1,0.06,0.15,0.17,0.15l0.16-0.01c0.1-0.01,0.15-0.06,0.15-0.17l-0.04-0.55l0.47-0.04l0.07,0.86c0,0.05,0.06,0.1,0.17,0.15
		l-0.02,0c-0.2,0.02-0.34,0.05-0.44,0.11c-0.1,0.06-0.23,0.09-0.39,0.11c-0.16,0.01-0.29-0.01-0.4-0.05
		c-0.11-0.04-0.26-0.06-0.46-0.04l-0.02,0c0.1-0.06,0.15-0.12,0.15-0.17l-0.24-3.14c0-0.05-0.06-0.1-0.17-0.15
		c0.21-0.02,0.37-0.06,0.47-0.11c0.09-0.06,0.22-0.1,0.36-0.11l0.04,0c0.15-0.01,0.28,0.01,0.38,0.05c0.11,0.04,0.26,0.06,0.47,0.04
		c-0.1,0.06-0.15,0.12-0.15,0.17l0.07,0.86l-0.47,0.04l-0.04-0.55c-0.01-0.1-0.06-0.15-0.17-0.14l-0.16,0.01
		c-0.1,0.01-0.15,0.06-0.15,0.17l0.08,1.02L56.26,60.1z"/>
	<path d="M58.65,61.77c0,0.05,0.06,0.1,0.16,0.15l-0.02,0c-0.2,0.01-0.35,0.04-0.44,0.1c-0.1,0.06-0.23,0.09-0.39,0.1
		c-0.16,0.01-0.29-0.01-0.39-0.06c-0.1-0.05-0.26-0.07-0.46-0.06l-0.02,0c0.1-0.06,0.15-0.11,0.15-0.17l-0.06-1.1
		c-0.01-0.1-0.06-0.21-0.17-0.31l0.82,0.59c-0.1,0.01-0.15,0.06-0.15,0.16l0.02,0.31c0,0.1,0.06,0.15,0.17,0.15l0.16-0.01
		c0.1-0.01,0.15-0.06,0.15-0.17l-0.04-0.78l-0.97-0.58l-0.07-1.41c0-0.05-0.06-0.1-0.16-0.15c0.21-0.01,0.37-0.05,0.47-0.1
		c0.1-0.06,0.22-0.09,0.37-0.1l0.04,0c0.15-0.01,0.28,0.01,0.38,0.06c0.1,0.05,0.26,0.06,0.47,0.06c-0.1,0.06-0.15,0.11-0.15,0.17
		l0.06,1.1c0.01,0.1,0.06,0.21,0.17,0.31l-0.82-0.59c0.1-0.01,0.15-0.06,0.15-0.17l-0.02-0.32c0-0.1-0.06-0.15-0.17-0.15l-0.16,0.01
		c-0.1,0.01-0.15,0.06-0.15,0.16l0.04,0.79l0.97,0.58L58.65,61.77z"/>
	<path d="M58.86,58.47l0.79-0.03c-0.1,0.06-0.15,0.11-0.15,0.16l0.12,3.06c0,0.05,0.06,0.1,0.16,0.15l-0.79,0.03
		c0.1-0.06,0.15-0.11,0.15-0.16l-0.11-3.06C59.02,58.56,58.96,58.51,58.86,58.47z"/>
	<path d="M61.5,61.67c0,0.05,0.06,0.1,0.16,0.15l-0.02,0c-0.2,0.01-0.35,0.04-0.44,0.1c-0.1,0.05-0.24,0.09-0.39,0.1
		c-0.16,0-0.29-0.02-0.39-0.06c-0.1-0.05-0.26-0.07-0.46-0.06l-0.02,0c0.1-0.06,0.15-0.11,0.15-0.16l-0.14-3.14
		c0-0.05-0.06-0.1-0.16-0.15c0.21-0.01,0.37-0.04,0.47-0.1c0.1-0.06,0.22-0.09,0.37-0.09l0.04,0c0.15-0.01,0.28,0.01,0.38,0.06
		c0.1,0.05,0.26,0.07,0.47,0.06c-0.1,0.06-0.15,0.11-0.15,0.16l0.04,0.86l-0.47,0.02l-0.02-0.55c0-0.1-0.06-0.15-0.16-0.15
		l-0.16,0.01c-0.1,0-0.16,0.06-0.15,0.16l0.11,2.52c0,0.1,0.06,0.15,0.16,0.15l0.16-0.01c0.1,0,0.15-0.06,0.15-0.17l-0.04-1.02
		l-0.08,0c-0.05,0-0.1,0.03-0.15,0.09l-0.03-0.71c0.06,0.1,0.11,0.15,0.16,0.15l0.39-0.02c0.05,0,0.1-0.06,0.15-0.16L61.5,61.67z"/>
	<path d="M62.33,59.42l0.15,2.2c0,0.05,0.06,0.1,0.17,0.15l-0.79,0.05c0.1-0.06,0.15-0.12,0.15-0.17l-0.21-3.14
		c0-0.05-0.06-0.1-0.17-0.15l0.79-0.05c-0.1,0.06-0.15,0.12-0.15,0.17l0.01,0.16l0.5,0.44l-0.04-0.63c0-0.05-0.06-0.1-0.17-0.15
		l0.78-0.05c-0.1,0.06-0.15,0.12-0.15,0.17l0.21,3.14c0,0.05,0.06,0.1,0.17,0.15l-0.78,0.05c0.1-0.06,0.15-0.12,0.15-0.17
		l-0.12-1.73L62.33,59.42z"/>
	<path d="M64.8,59.62c0.05,0,0.1-0.06,0.14-0.17l0.07,0.78c-0.06-0.1-0.12-0.15-0.17-0.14l-0.55,0.05l0.09,1.02
		c0.01,0.1,0.07,0.15,0.17,0.14l0.16-0.01c0.1-0.01,0.15-0.07,0.14-0.17l-0.05-0.55l0.47-0.04l0.08,0.86c0,0.05,0.06,0.1,0.17,0.14
		l-0.02,0c-0.2,0.02-0.34,0.06-0.44,0.12c-0.1,0.06-0.23,0.1-0.39,0.11c-0.16,0.01-0.29,0-0.4-0.04c-0.11-0.04-0.26-0.06-0.46-0.04
		l-0.02,0c0.1-0.06,0.15-0.12,0.14-0.17l-0.28-3.13c0-0.05-0.06-0.1-0.17-0.14c0.21-0.02,0.36-0.06,0.47-0.12
		c0.09-0.06,0.21-0.1,0.36-0.11l0.04,0c0.15-0.01,0.28,0,0.38,0.04c0.11,0.04,0.26,0.05,0.47,0.04c-0.1,0.06-0.15,0.12-0.14,0.17
		l0.08,0.86l-0.47,0.04l-0.05-0.55c-0.01-0.1-0.07-0.15-0.17-0.14l-0.16,0.01c-0.1,0.01-0.15,0.07-0.14,0.17l0.09,1.02L64.8,59.62z"
		/>
	<path d="M66.33,61.28c0,0.05,0.06,0.1,0.17,0.14l-0.78,0.09c0.1-0.06,0.14-0.12,0.14-0.17l-0.35-3.13
		c-0.01-0.05-0.06-0.1-0.17-0.14c0.21-0.03,0.36-0.07,0.46-0.13c0.09-0.06,0.21-0.1,0.36-0.12l0.02,0c0.21-0.02,0.43,0.06,0.66,0.24
		c0.11,0.09,0.2,0.14,0.25,0.13c-0.1,0.06-0.15,0.12-0.14,0.17l0.1,0.86c0.01,0.05-0.01,0.16-0.04,0.32
		c-0.03,0.03-0.05,0.06-0.08,0.09c0.03,0.02,0.06,0.04,0.09,0.07c0.07,0.15,0.1,0.25,0.11,0.3l0.13,1.17
		c0.01,0.05,0.06,0.1,0.17,0.14l-0.78,0.09c0.1-0.06,0.15-0.12,0.14-0.17l-0.13-1.18c-0.01-0.1-0.07-0.15-0.17-0.14l-0.16,0.02
		c-0.1,0.01-0.15,0.07-0.14,0.17L66.33,61.28z M66.44,59.45c0.1-0.01,0.15-0.07,0.14-0.17l-0.1-0.87c-0.01-0.1-0.07-0.15-0.17-0.14
		l-0.16,0.02c-0.1,0.01-0.15,0.07-0.14,0.17l0.1,0.86c0.01,0.1,0.07,0.15,0.17,0.14L66.44,59.45z"/>
</g>
<g>
</g>
<g>
</g>
<g>
</g>
<g>
</g>
<g>
</g>
</svg>
