<?xml version="1.0" encoding="utf-8"?>
<!-- Generator: Adobe Illustrator 23.1.0, SVG Export Plug-In . SVG Version: 6.00 Build 0)  -->
<svg version="1.1" id="Layer_1" xmlns="http://www.w3.org/2000/svg" xmlns:xlink="http://www.w3.org/1999/xlink" x="0px" y="0px"
	 viewBox="0 0 560 288" style="enable-background:new 0 0 560 288;" xml:space="preserve">
<style type="text/css">
	.st0{opacity:0.2;}
	.st1{fill:#333333;}
	.st2{opacity:0.06;}
	.st3{fill:#FFFFFF;stroke:#000000;stroke-miterlimit:10;}
</style>
<g>
	<g class="st0">
		<path class="st1" d="M3.26,304.09c-0.5-6.96-1.51-13.78-2.49-20.38c-0.98-6.63-2-13.49-2.5-20.49c-1.13-22.55-0.79-43.07,1-60.98
			c3.14-25.1,7.27-47.02,13-68.98c11.43-42.2,13.07-89.6,5.03-144.9h19.73C52.02,40.48,52.94,96.26,40,169.2
			c-4,23.02-2.99,45.39-2,67.03c0.89,16.03,2.66,34.99,9.01,54.04c0.5,2.48,1,4.77,1.5,6.99c0.48,2.16,0.98,4.4,1.47,6.83H3.26z"/>
		<path d="M36.93-11.49c8.03,27.94,11.93,57.08,11.93,89.1c0,27.5-2.94,57.46-9,91.58c-4.01,23.03-2.99,45.41-2,67.06
			c0.89,16.04,2.66,35.01,9,54.04c0.5,2.5,1.01,4.79,1.5,7.01c0.47,2.11,0.95,4.29,1.43,6.66H3.39c-0.51-6.92-1.51-13.7-2.48-20.26
			c-0.98-6.63-2-13.49-2.5-20.47c-1.13-22.55-0.79-43.06,1-60.95c3.14-25.09,7.27-47.01,12.99-68.96
			c11.42-42.18,13.08-89.55,5.05-144.79H36.93 M37.13-11.77c-7,0-13,0-20,0c7,48,8,97-5,145c-6,23-10,45-13,69c-2,20-2,41-1,61
			c1,14,4,27,5,41c16,0,31,0,47,0c-1-5-2-9-3-14c-6-18-8-36-9-54c-1-22-2-44,2-67C51.13,107.23,54.13,47.23,37.13-11.77L37.13-11.77
			z"/>
	</g>
	<g class="st0">
		<path class="st1" d="M229.24,290.09c-13.43-51.53-16.04-97.92-7.97-141.84c11.01-64.95,9.71-121.82-3.96-173.89h45.71
			c10,52.09,7.97,104.85-6.02,156.83c-14.42,54.59-16.79,108.05-7.03,158.9H229.24z"/>
		<path d="M262.91-25.49c9.97,52.03,7.94,104.73-6.04,156.65c-14.41,54.55-16.79,107.97-7.07,158.79h-20.45
			c-13.4-51.47-16-97.81-7.94-141.68c11-64.89,9.72-121.73-3.91-173.77H262.91 M263.13-25.77c-15,0-31,0-46,0c15,57,14,115,4,174
			c-9,49-4,96,8,142c7,0,14,0,21,0c-10-52-7-106,7-159C271.13,79.23,273.13,26.23,263.13-25.77L263.13-25.77z"/>
	</g>
	<g class="st0">
		<path class="st1" d="M103.25,292.09c-2.94-14.71-5.98-29.93-8.98-45.89c-1.34-9.4-1.77-18.18-2.23-27.47
			c-0.22-4.39-0.44-8.92-0.77-13.51c-0.69-24.91,2.99-50.24,6.55-74.74c1.58-10.89,3.22-22.16,4.45-33.24
			c3.63-37.24,0.05-76.78-10.96-120.88h45.71c7.4,35.22,8.4,74.53,2.98,116.84c-2.33,14.59-5.76,28.79-9.08,42.52
			c-2.38,9.86-4.84,20.06-6.92,30.47c-2.89,12.54-3.9,23.67-5,38.02c-1.91,28.59-0.28,57.34,4.97,87.87H103.25z"/>
		<path d="M136.91-23.49c7.37,35.17,8.37,74.43,2.95,116.68c-2.33,14.58-5.76,28.78-9.07,42.52c-2.38,9.86-4.84,20.06-6.92,30.47
			c-2.9,12.55-3.9,23.68-5.01,38.04c-1.9,28.55-0.29,57.26,4.95,87.74h-20.44c-2.94-14.68-5.97-29.86-8.95-45.76
			c-1.34-9.4-1.77-18.17-2.23-27.46c-0.22-4.39-0.44-8.93-0.77-13.51c-0.69-24.9,2.99-50.23,6.55-74.72
			c1.58-10.89,3.22-22.16,4.45-33.24c3.63-37.2,0.06-76.71-10.92-120.75H136.91 M137.13-23.77c-15,0-31,0-46,0c10,40,15,80,11,121
			c-4,36-12,72-11,108c1,14,1,27,3,41c3,16,6,31,9,46c7,0,14,0,21,0c-5-29-7-58-5-88c1-13,2-25,5-38c5-25,12-48,16-73
			C145.13,54.23,145.13,14.23,137.13-23.77L137.13-23.77z"/>
	</g>
	<g class="st0">
		<path class="st1" d="M200.25,304.09c-7.42-35.3-8.39-73.52-2.98-116.84c2.31-14.75,5.72-28.86,9.03-42.51
			c3.84-15.85,7.81-32.25,9.97-49.49c1.33-8.67,1.79-17.48,2.22-26.01c0.22-4.26,0.44-8.67,0.78-13c0-22.1-2.74-43.07-5.64-65.27
			l-0.34-2.6h20.73c13.8,53.42,15.06,109.3,3.97,175.84c-9.91,52.87-0.97,102.51,7.96,139.88H200.25z"/>
		<path d="M233.92-11.49c13.77,53.37,15.02,109.2,3.94,175.67c-9.9,52.82-1,102.41,7.92,139.77h-45.42
			c-7.39-35.26-8.36-73.43-2.95-116.68c2.3-14.75,5.72-28.86,9.03-42.5c3.84-15.86,7.82-32.26,9.97-49.5
			c1.34-8.68,1.79-17.5,2.23-26.03c0.22-4.26,0.44-8.66,0.78-13.01c0-22.1-2.74-43.07-5.64-65.28l-0.32-2.45H233.92 M234.13-11.77
			c-7,0-14,0-21,0c3,23,6,45,6,68c-1,13-1,26-3,39c-4,32-14,60-19,92c-5,40-5,79,3,117c15,0,31,0,46,0c-11-46-17-92-8-140
			C248.13,104.23,249.13,46.23,234.13-11.77L234.13-11.77z"/>
	</g>
	<g class="st0">
		<path class="st1" d="M134.25,311.09c-9.61-52.39-8.29-100.42,4.02-146.83c16.6-66.39,19.47-120.06,9.04-168.9h20.72
			c14.51,54.24,16.18,111.71,4.97,170.84c-3.1,15.51-4.07,30-5,44.02c-0.97,22.31,1.8,43.49,4.73,65.92l0.28,2.11
			c0.42,2.33,0.81,4.75,1.18,7.09c1.4,8.8,2.85,17.89,6.73,25.75H134.25z"/>
		<path d="M167.92-4.49c7.33,27.44,11.43,55.86,12.19,84.48c0.74,27.96-1.7,56.96-7.24,86.19c-3.1,15.52-4.07,30.02-5.01,44.04
			c-0.97,22.32,1.8,43.51,4.73,65.94l0.28,2.13c0.42,2.33,0.81,4.74,1.18,7.08c1.39,8.73,2.83,17.76,6.64,25.59h-46.32
			c-9.58-52.32-8.26-100.3,4.04-146.66c16.58-66.33,19.47-119.98,9.07-168.79H167.92 M168.13-4.77c-7,0-14,0-21,0c12,56,5,113-9,169
			c-13,49-13,98-4,147c16,0,31,0,47,0c-5-10-6-22-8-33c-3-23-6-45-5-68c1-15,2-29,5-44C184.13,108.23,183.13,51.23,168.13-4.77
			L168.13-4.77z"/>
	</g>
	<g class="st0">
		<path class="st1" d="M342.25,308.09c-7.36-44.21-7.68-85.7-0.98-126.84c2-12.49,5.05-24.69,8-36.49c2.95-11.8,6-24.01,8-36.51
			c5.84-37.98,5.18-76.97-1.97-115.88h20.73c11.68,39.95,15.03,82.29,9.97,125.85c-1.06,12.71-2.9,25.62-4.67,38.11
			c-3.26,22.91-6.63,46.6-5.33,69.91c1.96,27.48,3.99,55.89,12.94,81.85H342.25z"/>
		<path d="M375.93-7.49c11.65,39.9,14.99,82.19,9.93,125.7c-1.06,12.7-2.89,25.61-4.67,38.1c-3.26,22.92-6.63,46.62-5.33,69.94
			c1.96,27.42,3.98,55.77,12.89,81.7h-46.38c-7.34-44.15-7.65-85.59-0.96-126.68c2-12.49,5.05-24.68,8-36.48
			c2.95-11.8,6-24.01,8.01-36.53c5.84-37.94,5.18-76.89-1.94-115.76H375.93 M376.13-7.77c-7,0-14,0-21,0c7,38,8,77,2,116
			c-4,25-12,48-16,73c-7,43-6,85,1,127c16,0,31,0,47,0c-9-26-11-54-13-82c-2-36,7-72,10-108C391.13,75.23,388.13,33.23,376.13-7.77
			L376.13-7.77z"/>
	</g>
	<g class="st0">
		<path class="st1" d="M409.25,304.09c-3.98-17.96-4.99-37.23-5.97-55.87c-0.97-23.28,1.8-45.42,4.73-68.86l0.26-2.12
			c1-4.99,2.01-9.82,3-14.49s2-9.5,3-14.5c15.76-55.69,18.47-109.48,8.04-159.89h20.73c3.73,12.71,5.82,25.63,7.84,38.13
			c0.68,4.18,1.38,8.5,2.13,12.75c2.84,24.6,3.15,48.03,1,75.97c-1.5,11.49-3.28,22.93-5,33.99c-1.72,11.06-3.5,22.5-5,34
			c-0.66,4.64-0.45,8.79-0.23,13.18c0.11,2.2,0.23,4.47,0.23,6.84c-2.18,37.12,1.72,70.11,11.95,100.86H409.25z"/>
		<path d="M442.93-11.49c3.71,12.67,5.79,25.55,7.81,38.02c0.68,4.18,1.38,8.5,2.12,12.74c2.84,24.6,3.15,48.03,1,75.93
			c-1.5,11.5-3.28,22.93-5,33.99c-1.72,11.06-3.5,22.5-5,34c-0.67,4.65-0.45,8.81-0.23,13.21c0.11,2.2,0.23,4.47,0.23,6.82
			c-2.18,37.07,1.71,70.02,11.89,100.74h-46.39c-3.96-17.92-4.97-37.14-5.95-55.73c-0.97-23.27,1.8-45.4,4.73-68.84l0.26-2.1
			c1-5,2.02-9.83,3-14.5c0.98-4.67,2-9.5,3-14.48c15.75-55.66,18.47-109.42,8.07-159.8H442.93 M443.13-11.77c-7,0-14,0-21,0
			c11,53,7,107-8,160c-2,10-4,19-6,29c-3,24-6,47-5,71c1,19,2,38,6,56c16,0,31,0,47,0c-11-33-14-67-12-101c0-7-1-13,0-20
			c3-23,7-45,10-68c2-26,2-50-1-76C450.13,22.23,448.13,5.23,443.13-11.77L443.13-11.77z"/>
	</g>
	<g class="st0">
		<path class="st1" d="M422.25,311.09c-7.58-37.99-8.25-78.98-1.98-121.84c2.22-14.99,5.75-29.05,9.17-42.65
			c2.76-10.98,5.61-22.34,7.83-34.34c5.82-38.77,5.17-77-1.97-116.89h20.72c0.98,4.89,2,9.94,3.98,14.91
			c1.83,6.12,2.54,12.19,3.28,18.62c0.46,3.98,0.94,8.1,1.71,12.35c5.17,34.12,4.86,63.71-1,95.95
			c-11.01,64.94-9.71,121.82,3.96,173.89H422.25z"/>
		<path d="M455.91-4.49c0.97,4.86,1.99,9.88,3.96,14.8c1.84,6.12,2.54,12.19,3.28,18.61c0.46,3.99,0.94,8.11,1.71,12.35
			c5.17,34.11,4.86,63.69-1,95.91c-11,64.89-9.72,121.73,3.91,173.77h-45.41c-7.56-37.94-8.22-78.88-1.95-121.68
			c2.22-14.98,5.75-29.04,9.16-42.64c2.76-10.98,5.61-22.34,7.84-34.36c5.81-38.73,5.17-76.93-1.94-116.76H455.91 M456.13-4.77
			c-7,0-14,0-21,0c7,39,8,77,2,117c-5,27-13,50-17,77c-6,41-6,82,2,122c15,0,31,0,46,0c-15-57-14-115-4-174c6-33,6-63,1-96
			c-2-11-2-21-5-31C458.13,5.23,457.13,0.23,456.13-4.77L456.13-4.77z"/>
	</g>
	<g class="st0">
		<path class="st1" d="M526.25,306.09c-7.36-44.21-7.68-85.7-0.98-126.84c2.2-11.9,5.03-23.38,7.76-34.48
			c3.44-13.98,7-28.43,9.24-43.53c4.83-44.69,3.89-79.93-2.96-110.88h20.72c10.79,36.92,14.38,78.09,10.97,125.85
			c-1.3,12.98-3.49,25.83-5.61,38.25c-1.15,6.75-2.34,13.73-3.39,20.74c-0.5,5.01-0.75,9.84-1,14.51c-0.25,4.67-0.5,9.5-1,14.49
			c-0.8,16.82,0.99,33.9,2.72,50.43c0.44,4.2,0.88,8.4,1.28,12.6c1.96,12.74,3.98,25.9,8.94,38.85H526.25z"/>
		<path d="M559.93-9.49c10.76,36.88,14.34,78,10.93,125.69c-1.3,12.98-3.49,25.82-5.61,38.24c-1.15,6.75-2.34,13.73-3.39,20.76
			c-0.5,5.01-0.76,9.84-1,14.51c-0.25,4.67-0.5,9.49-1,14.5c-0.8,16.82,0.99,33.91,2.72,50.44c0.43,4.13,0.88,8.4,1.28,12.61
			c1.95,12.67,3.97,25.77,8.87,38.68h-46.36c-7.34-44.15-7.65-85.59-0.96-126.67c2.2-11.9,5.03-23.37,7.76-34.47
			c3.44-13.98,7-28.43,9.24-43.55c4.82-44.62,3.89-79.82-2.93-110.75H559.93 M560.13-9.77c-7,0-14,0-21,0c8,36,7,74,3,111
			c-4,27-12,51-17,78c-7,43-6,85,1,127c16,0,31,0,47,0c-5-13-7-26-9-39c-2-21-5-42-4-63c1-10,1-19,2-29c3-20,7-39,9-59
			C574.13,74.23,572.13,31.23,560.13-9.77L560.13-9.77z"/>
	</g>
	<g class="st2">
		<path class="st1" d="M68.27,305.09c0.04-1.93,0.92-3.9,1.76-5.8c0.44-0.99,0.89-2.01,1.23-3.01
			c9.03-35.11,10.99-69.15,6.01-104.06c-2.05-13.82-5.44-27-8.73-39.75c-3.11-12.07-6.32-24.55-8.27-37.25
			C54.7,69.49,57.3,29.96,68.24-5.63h11.71C65.56,43.43,65.57,97.68,80,151.27c14.44,49.08,14.44,102.27,0.03,153.83H68.27z"/>
		<path d="M79.76-5.49c-14.35,49.04-14.31,103.25,0.1,156.8c14.42,49.02,14.44,102.14,0.06,153.64H68.42
			c0.08-1.85,0.93-3.76,1.75-5.61c0.44-0.99,0.89-2.01,1.24-3.04c9.03-35.12,11-69.18,6.01-104.11
			c-2.05-13.82-5.44-27.01-8.73-39.77c-3.11-12.07-6.32-24.54-8.27-37.23c-5.57-45.66-2.97-85.14,7.93-120.69H79.76 M80.13-5.77
			c-4,0-8,0-12,0c-12,39-13,80-8,121c4,26,13,50,17,77c5,35,3,69-6,104c-1,3-3,6-3,9c4,0,8,0,12,0c14-50,15-103,0-154
			C66.13,99.23,65.13,45.23,80.13-5.77L80.13-5.77z"/>
	</g>
	<g class="st2">
		<path class="st1" d="M162.43,296.01c8.32-27.87,12-59.42,10.92-93.78c-1.2-19.26-5.21-36.69-9.46-55.15
			c-2.73-11.86-5.55-24.12-7.54-36.88c-7.95-43.7-5.95-87.01,5.94-128.72c1.9,0.18,3.96,0.27,6.29,0.27c2.99,0,6.07-0.15,9.06-0.29
			c2.98-0.14,6.06-0.29,9.03-0.29c2.28,0,4.29,0.08,6.15,0.26c-11.26,31.93-11.84,67.35-10.92,97.81c1.15,19.02,5.53,36.98,10.16,56
			c3.31,13.57,6.72,27.61,8.84,42.02c4.87,39.95,2.27,78.79-7.95,118.74H162.43z"/>
		<path d="M186.68-19.06v0.45h0c2.15,0,4.07,0.08,5.84,0.23c-11.18,31.89-11.76,67.23-10.83,97.64
			c1.15,19.04,5.53,37.01,10.16,56.03c3.3,13.57,6.72,27.6,8.84,41.99c4.86,39.87,2.28,78.64-7.9,118.5h-30.05
			c8.27-27.82,11.92-59.3,10.85-93.58c-1.2-19.27-5.22-36.71-9.46-55.18c-2.73-11.86-5.55-24.11-7.54-36.87
			c-7.93-43.6-5.95-86.81,5.89-128.44c1.85,0.17,3.86,0.26,6.13,0.26c2.99,0,6.08-0.15,9.07-0.29c2.97-0.14,6.05-0.29,9.02-0.29
			L186.68-19.06 M186.68-19.06c-5.97,0-12.12,0.58-18.09,0.58c-2.18,0-4.34-0.08-6.45-0.29c-12,42-14,85-6,129c5,32,15,60,17,92
			c1,32-2,64-11,94c10,0,21,0,31,0c10-39,13-78,8-119c-5-34-17-65-19-98c-1-33,0-67,11-98C191.02-18.98,188.86-19.06,186.68-19.06
			L186.68-19.06z"/>
	</g>
	<g class="st2">
		<path class="st1" d="M246.33,305.09c8.67-26.1,12.15-55.61,10.95-92.87c-0.98-10.83-2-22.01-4-34.02c-1.5-10.01-4.3-19.67-7-29.02
			c-2.7-9.34-5.5-18.99-7-28.98c-6.71-41.21-4.36-83.55,6.97-125.84h11.71c-11.2,38.77-13.87,78.43-7.95,117.88
			c2,13.51,5.31,26.47,8.5,39.01c3.19,12.53,6.5,25.49,8.5,38.99c5.03,39.22,2.01,77.86-8.97,114.84H246.33z"/>
		<path d="M257.77-5.49c-11.16,38.73-13.82,78.35-7.91,117.76c2,13.51,5.31,26.48,8.51,39.03c3.19,12.53,6.5,25.49,8.49,38.97
			c5.02,39.17,2.02,77.76-8.93,114.69h-11.41c8.63-26.07,12.09-55.55,10.89-92.75c-0.98-10.82-2-22.01-4-34.02
			c-1.5-10.02-4.3-19.69-7.01-29.04c-2.7-9.33-5.49-18.98-6.99-28.97c-6.7-41.15-4.36-83.44,6.94-125.68H257.77 M258.13-5.77
			c-4,0-8,0-12,0c-11,41-14,83-7,126c3,20,11,38,14,58c2,12,3,23,4,34c1,31-1,63-11,93c4,0,8,0,12,0c11-37,14-76,9-115
			c-4-27-13-51-17-78C244.13,72.23,247.13,32.23,258.13-5.77L258.13-5.77z"/>
	</g>
	<g class="st2">
		<path class="st1" d="M331.5,297.96c8.91-26.9,12.14-56.92,9.9-91.75c-0.91-19.02-2.63-39.71-9.01-62.06
			c-14.85-49.2-15.2-102.91-1.05-159.66h42.45c-10.2,38.92-12.79,76.79-7.92,115.77c2,11.52,4.8,22.96,7.51,34.03
			c2.7,11.06,5.5,22.49,7.5,33.98c4.07,30.5,6.95,58.17,1,87.9l0,6.05c-1.12,4.45-1.84,9.03-2.53,13.46
			c-1.14,7.31-2.32,14.86-5.38,22.28H331.5z"/>
		<path d="M373.45-15.24c-10.14,38.84-12.7,76.64-7.84,115.56c2,11.52,4.8,22.96,7.51,34.04c2.7,11.05,5.5,22.48,7.49,33.94
			c4.06,30.48,6.95,58.13,1.01,87.83l-0.01,0.05v0.05v5.93c-1.12,4.5-1.83,9.07-2.52,13.48c-1.13,7.24-2.3,14.72-5.3,22.05h-41.91
			c8.83-26.84,12.04-56.78,9.8-91.5c-0.91-19.04-2.63-39.75-9.02-62.13c-14.82-49.09-15.19-102.69-1.09-159.32H373.45 M374.13-15.77
			c-14,0-29,0-43,0c-13,52-15,107,1,160c6,21,8,41,9,62c2,31,0,62-10,92c14,0,29,0,43,0c5-12,5-24,8-36c0-2,0-4,0-6c6-30,3-58-1-88
			c-4-23-11-45-15-68C361.13,60.23,364.13,22.23,374.13-15.77L374.13-15.77z"/>
	</g>
	<g class="st2">
		<path class="st1" d="M497.3,303.09c0.5-2.95,1.25-6.19,1.97-9.33c0.74-3.2,1.5-6.5,2-9.51c0.37-1.66,0.74-3.29,1.1-4.89
			c1.59-6.99,3.08-13.59,3.9-20.12l0.22-2.58c0.92-10.95,1.79-21.3,1.79-32.44c-0.33-4.34-0.56-8.75-0.78-13.01
			c-0.44-8.53-0.89-17.34-2.22-26.01c-0.92-3.98-1.75-7.91-2.56-11.71c-1.89-8.88-3.67-17.28-6.45-26.31
			C482.06,95.44,482.4,41.9,497.24-7.63h11.71c-14.91,50.44-14.21,106.25,2.05,165.9c12.07,41.4,11.45,87.42-1.98,144.83H497.3z"/>
		<path d="M508.76-7.49c-14.86,50.42-14.15,106.2,2.11,165.8c6.58,22.55,9.31,46.36,8.36,72.79c-0.79,22.01-4.17,45.52-10.32,71.86
			h-11.45c0.5-2.91,1.23-6.08,1.94-9.16c0.74-3.2,1.5-6.51,2-9.5c0.37-1.66,0.74-3.29,1.1-4.9c1.59-6.99,3.08-13.6,3.9-20.14
			l0.21-2.57c0.92-10.96,1.79-21.3,1.79-32.47c-0.33-4.33-0.56-8.73-0.78-12.99c-0.44-8.53-0.89-17.35-2.23-26.05
			c-0.92-3.97-1.75-7.9-2.56-11.7c-1.89-8.89-3.67-17.28-6.45-26.31c-14.19-51.69-13.86-105.16,0.94-154.65H508.76 M509.13-7.77
			c-4,0-8,0-12,0c-15,50-15,104-1,155c4,13,6,25,9,38c2,13,2,26,3,39c0,12-1,23-2,35c-1,8-3,16-5,25c-1,6-3,13-4,19c4,0,8,0,12,0
			c11-47,16-97,2-145C496.13,103.23,493.13,46.23,509.13-7.77L509.13-7.77z"/>
	</g>
</g>
<path class="st3" d="M170.59,166.36"/>
<g>
</g>
<g>
</g>
<g>
</g>
<g>
</g>
<g>
</g>
</svg>
